<?xml version="1.0" encoding="utf-8"?>
<!-- Generator: Adobe Illustrator 25.0.1, SVG Export Plug-In . SVG Version: 6.00 Build 0)  -->
<svg version="1.1" id="Layer_1" xmlns="http://www.w3.org/2000/svg" xmlns:xlink="http://www.w3.org/1999/xlink" x="0px" y="0px"
	 viewBox="0 0 742.1 68" style="enable-background:new 0 0 742.1 68;" xml:space="preserve">
<g>
	<path d="M0,66.6V1.3h42.8v9.6h-31v17.8H41v9.5H11.7v28.5H0z"/>
	<path d="M56.1,66.6V1.3h12v55.5h30.5v9.8H56.1z"/>
	<path d="M160.7,66.6l-6.6-15.3h-31.8l-6.6,15.3h-12l29.5-65.3h9.7l29.6,65.3H160.7z M126.2,42.1h23.9l-11.9-27.8L126.2,42.1z"/>
	<path d="M225,1.3h12.1L208,66.6h-9.7L169.1,1.3h12.3l21.7,50.5L225,1.3z"/>
	<path d="M246.9,66.6V1.3h12v65.3H246.9z"/>
	<path d="M326.6,66.6L320,51.3h-31.8l-6.6,15.3h-12.1l29.6-65.3h9.7l29.6,65.3H326.6z M292.1,42.1h23.9l-12-27.8L292.1,42.1z"/>
	<path d="M378,66.6V1.3h42.8v9.6h-31.1v17.8H419v9.5h-29.2v28.5H378z"/>
	<path d="M489,66.6h-13l-11.2-20.9c-0.8-1.8-2.2-3.2-3.9-4.2c-1.8-0.9-3.8-1.3-5.8-1.2h-9.1v26.2h-11.8V1.3h28.9
		c7.4,0,13.1,1.7,16.9,5s5.8,8.1,5.8,14.3c0.2,4.5-1.3,8.9-4.2,12.4c-2.8,3.2-6.8,5.3-11.9,6.3c3.5,0.9,6.2,3.4,8.4,7.3L489,66.6z
		 M471.4,28.6c2.1-1.7,3.1-4.3,3.1-7.8c0-3.6-1-6.2-3.1-7.8s-5.4-2.5-9.9-2.5h-15.6v20.7h15.6C465.9,31.2,469.2,30.4,471.4,28.6
		L471.4,28.6z"/>
	<path d="M502.3,66.6V1.3h12v65.3H502.3z"/>
	<path d="M586.5,31.3v31.4c-3.4,1.6-7.1,2.8-10.8,3.5c-4.3,0.9-8.6,1.3-12.9,1.3c-6.1,0.2-12.1-1.2-17.5-4
		c-4.9-2.6-8.8-6.7-11.3-11.6c-2.8-5.6-4.1-11.7-4-17.9c-0.1-6.2,1.2-12.3,4-17.9c2.5-4.9,6.4-8.9,11.2-11.6
		c5.3-2.8,11.2-4.2,17.1-4c4.4,0,8.7,0.6,12.9,2c3.7,1.2,7.1,3.1,10,5.7l-4,8.6c-2.7-2.1-5.7-3.8-8.9-5c-3.1-1.1-6.4-1.6-9.7-1.5
		c-6.7,0-11.8,2-15.2,6c-3.4,4-5.1,9.9-5.1,17.7c0,16.1,7,24.1,21.1,24.1c4.3,0,8.5-0.7,12.6-1.8V39.9h-14.1v-8.6H586.5z"/>
	<path d="M603.7,66.6V1.3h43.8v9.4h-32.1v18h30.2v9.3h-30.2v19.1h32.1v9.5H603.7z"/>
	<path d="M716.8,66.6h-13l-11.2-20.9c-0.8-1.8-2.2-3.2-3.9-4.2c-1.8-0.9-3.8-1.3-5.8-1.2h-9.1v26.2H662V1.3h28.9
		c7.4,0,13,1.7,16.9,5s5.8,8.1,5.8,14.3c0.2,4.5-1.3,8.9-4.2,12.4c-2.8,3.2-6.8,5.4-11.9,6.3c3.5,0.9,6.2,3.4,8.3,7.3L716.8,66.6z
		 M699.2,28.6c2.1-1.7,3.2-4.3,3.2-7.8c0-3.6-1.1-6.2-3.2-7.8c-2.1-1.6-5.4-2.5-9.9-2.5h-15.6v20.7h15.6
		C693.7,31.2,697,30.4,699.2,28.6L699.2,28.6z"/>
	<path d="M730.1,66.6V1.3h12v65.3H730.1z"/>
</g>
</svg>
