<svg xmlns="http://www.w3.org/2000/svg" width="191.979" height="18.078" viewBox="0 0 191.979 18.078">
  <g id="Group_3" data-name="Group 3" transform="translate(-1111.437 -1476.306)">
    <g id="Group_1" data-name="Group 1" transform="translate(1111.437 1476.542)">
      <path id="Path_1" data-name="Path 1" d="M1124.937,1476.578v4.388h-.581l-.485-1.358c-.727-1.987-1.939-2.157-3.733-2.157h-4.024v7.539H1119c1.7,0,2.447-.195,2.86-1.6l.169-.7h.605v5.478h-.605l-.169-.7c-.413-1.406-1.164-1.6-2.86-1.6h-2.885v6.083c0,1.43.534,1.624,2.376,1.77v.509h-7.054v-.509c1.72-.146,2.206-.34,2.206-1.77v-13.089c0-1.43-.486-1.623-2.206-1.769v-.509Z" transform="translate(-1111.437 -1476.578)"/>
      <path id="Path_2" data-name="Path 2" d="M1142.884,1489.206l-.364,5.018h-12.41v-.509c1.721-.146,2.206-.34,2.206-1.77v-13.089c0-1.43-.485-1.623-2.206-1.769v-.509h6.908v.509c-1.745.146-2.229.34-2.229,1.769v14.325a5.4,5.4,0,0,0,1.43.17c3.441,0,4.6-.218,5.332-2.157l.751-1.988Z" transform="translate(-1113.892 -1476.578)"/>
      <path id="Path_3" data-name="Path 3" d="M1164.239,1493.715v.509H1157.6v-.509c2.037-.17,2.4-.582,1.891-1.916l-1.211-3.15h-7.223l-1.067,2.738c-.606,1.528.17,2.157,2.206,2.328v.509h-5.7v-.509c1.285-.17,1.7-.825,2.157-2.012l5.963-15.125h1.551l5.987,15.221C1162.616,1492.963,1162.954,1493.545,1164.239,1493.715Zm-6.326-5.963-3.248-8.386-3.272,8.386Z" transform="translate(-1116.047 -1476.578)"/>
      <path id="Path_4" data-name="Path 4" d="M1182.578,1476.578v.509c-1.309.169-1.7.776-2.157,2.011l-5.769,15.126H1173.1L1167.307,1479c-.46-1.212-.8-1.746-2.109-1.915v-.509h6.739v.509c-2.036.169-2.424.776-1.939,2.11l4.581,12.216,4.362-11.707c.631-1.673-.339-2.449-2.084-2.619v-.509Z" transform="translate(-1118.506 -1476.578)"/>
      <path id="Path_5" data-name="Path 5" d="M1187.25,1493.715c1.72-.146,2.206-.34,2.206-1.77v-13.089c0-1.43-.486-1.623-2.206-1.769v-.509h6.908v.509c-1.746.146-2.229.34-2.229,1.769v13.089c0,1.43.484,1.624,2.229,1.77v.509h-6.908Z" transform="translate(-1121.406 -1476.578)"/>
      <path id="Path_6" data-name="Path 6" d="M1214.289,1493.715v.509h-6.641v-.509c2.036-.17,2.4-.582,1.891-1.916l-1.212-3.15H1201.1l-1.067,2.738c-.605,1.528.17,2.157,2.206,2.328v.509h-5.7v-.509c1.285-.17,1.7-.825,2.157-2.012l5.963-15.125h1.551l5.987,15.221C1212.665,1492.963,1213,1493.545,1214.289,1493.715Zm-6.326-5.963-3.248-8.386-3.272,8.386Z" transform="translate(-1122.629 -1476.578)"/>
    </g>
    <g id="Group_2" data-name="Group 2" transform="translate(1211.621 1476.306)">
      <path id="Path_7" data-name="Path 7" d="M1237.945,1476.531v2.618H1230.1v5.234h6.618v2.631H1230.1v7.2h-3.314v-17.687Z" transform="translate(-1226.79 -1476.336)"/>
      <path id="Path_8" data-name="Path 8" d="M1246.586,1487.307v6.912H1243.3v-17.687h5.394a11.275,11.275,0,0,1,3.1.374,5.9,5.9,0,0,1,2.117,1.046,4.041,4.041,0,0,1,1.21,1.608,5.623,5.623,0,0,1,.123,3.748,4.9,4.9,0,0,1-.758,1.443,5.12,5.12,0,0,1-1.224,1.138,6.417,6.417,0,0,1-1.658.783,3.253,3.253,0,0,1,1.077,1.015l4.428,6.532h-2.96a1.44,1.44,0,0,1-.728-.172,1.489,1.489,0,0,1-.508-.489l-3.718-5.663a1.3,1.3,0,0,0-.458-.452,1.606,1.606,0,0,0-.741-.136Zm0-2.36h2.054a5.1,5.1,0,0,0,1.621-.233,3.145,3.145,0,0,0,1.138-.642,2.585,2.585,0,0,0,.667-.973,3.36,3.36,0,0,0,.22-1.235,2.514,2.514,0,0,0-.887-2.068,4.244,4.244,0,0,0-2.709-.721h-2.1Z" transform="translate(-1228.96 -1476.336)"/>
      <path id="Path_9" data-name="Path 9" d="M1265.947,1494.218h-3.3v-17.687h3.3Z" transform="translate(-1231.505 -1476.336)"/>
      <path id="Path_10" data-name="Path 10" d="M1279.554,1491.766a8.278,8.278,0,0,0,1.939-.2,8.1,8.1,0,0,0,1.571-.558v-3.216h-2.213a.692.692,0,0,1-.5-.177.582.582,0,0,1-.183-.434v-1.859h5.883v7.155a9.646,9.646,0,0,1-1.4.849,8.941,8.941,0,0,1-1.554.594,12.046,12.046,0,0,1-1.768.348,16.616,16.616,0,0,1-2.03.116,9.238,9.238,0,0,1-3.559-.672,8.361,8.361,0,0,1-4.667-4.734,9.672,9.672,0,0,1-.667-3.633,10,10,0,0,1,.648-3.656,8.057,8.057,0,0,1,4.734-4.722,10.48,10.48,0,0,1,3.816-.66,9.964,9.964,0,0,1,3.749.642,8.631,8.631,0,0,1,2.684,1.67l-.953,1.492a.852.852,0,0,1-.747.453,1.1,1.1,0,0,1-.6-.2q-.392-.232-.8-.465a5.477,5.477,0,0,0-.906-.4,7.582,7.582,0,0,0-1.113-.281,8.238,8.238,0,0,0-1.425-.109,6.1,6.1,0,0,0-2.366.44,5.018,5.018,0,0,0-1.806,1.259,5.685,5.685,0,0,0-1.149,1.97,7.73,7.73,0,0,0-.4,2.568,8.019,8.019,0,0,0,.428,2.722,5.711,5.711,0,0,0,1.2,2.011,5.168,5.168,0,0,0,1.835,1.254A6.1,6.1,0,0,0,1279.554,1491.766Z" transform="translate(-1232.525 -1476.306)"/>
      <path id="Path_11" data-name="Path 11" d="M1303.67,1476.531v2.618h-7.84v4.9h6.176v2.532h-6.176v5h7.84v2.631h-11.154v-17.687Z" transform="translate(-1235.433 -1476.336)"/>
      <path id="Path_12" data-name="Path 12" d="M1312.621,1487.307v6.912h-3.291v-17.687h5.394a11.274,11.274,0,0,1,3.1.374,5.889,5.889,0,0,1,2.117,1.046,4.031,4.031,0,0,1,1.21,1.608,5.623,5.623,0,0,1,.123,3.748,4.9,4.9,0,0,1-.758,1.443,5.114,5.114,0,0,1-1.224,1.138,6.431,6.431,0,0,1-1.657.783,3.259,3.259,0,0,1,1.076,1.015l4.428,6.532h-2.96a1.44,1.44,0,0,1-.728-.172,1.5,1.5,0,0,1-.508-.489l-3.718-5.663a1.3,1.3,0,0,0-.458-.452,1.606,1.606,0,0,0-.741-.136Zm0-2.36h2.054a5.1,5.1,0,0,0,1.621-.233,3.148,3.148,0,0,0,1.137-.642,2.585,2.585,0,0,0,.667-.973,3.363,3.363,0,0,0,.221-1.235,2.515,2.515,0,0,0-.888-2.068,4.244,4.244,0,0,0-2.709-.721h-2.1Z" transform="translate(-1237.644 -1476.336)"/>
      <path id="Path_13" data-name="Path 13" d="M1331.983,1494.218h-3.3v-17.687h3.3Z" transform="translate(-1240.188 -1476.336)"/>
    </g>
  </g>
</svg>
