<svg id="Layer_1" data-name="Layer 1" xmlns="http://www.w3.org/2000/svg" viewBox="0 0 742.09 65.35"><path d="M0,65.35V0H42.82V9.55h-31V27.34H41v9.55H11.77V65.35Z"/><path d="M56.17,65.35V0h12V55.52H98.62v9.83Z"/><path d="M160.73,65.35l-6.58-15.3h-31.8l-6.58,15.3h-12L133.29,0H143l29.57,65.35ZM126.25,40.78h23.91L138.21,13Z"/><path d="M225,0h12.14L208,65.35h-9.73L169.17,0h12.32l21.69,50.52Z"/><path d="M246.93,65.35V0h12V65.35Z"/><path d="M326.65,65.35l-6.58-15.3h-31.8l-6.58,15.3H269.64L299.21,0h9.73l29.57,65.35ZM292.17,40.78h23.91l-12-27.8Z"/><path d="M378,65.35V0h42.82V9.55H389.77V27.34H419v9.55H389.8V65.35Z"/><path d="M489,65.35H476L464.76,44.49a9.56,9.56,0,0,0-3.89-4.17,12.66,12.66,0,0,0-5.84-1.2h-9.09V65.35H434.17V0h28.92Q474.22,0,480,5t5.79,14.32a18.2,18.2,0,0,1-4.22,12.37q-4.21,4.86-11.9,6.31,5.19,1.39,8.35,7.33Zm-17.61-38q3.15-2.55,3.15-7.83c0-3.58-1.05-6.2-3.15-7.83S466,9.23,461.47,9.23H445.85V29.94h15.57q6.76,0,9.92-2.55Z"/><path d="M502.3,65.35V0h12V65.35Z"/><path d="M586.56,30V61.36a43.66,43.66,0,0,1-10.8,3.53,65.33,65.33,0,0,1-12.93,1.29,36.15,36.15,0,0,1-17.52-4A27.21,27.21,0,0,1,534,50.56a38.29,38.29,0,0,1-4-17.93,38.09,38.09,0,0,1,4-17.85A27.42,27.42,0,0,1,545.17,3.2a34.72,34.72,0,0,1,17.1-4,40.85,40.85,0,0,1,12.89,2,27,27,0,0,1,10,5.7l-4,8.62a31.86,31.86,0,0,0-8.94-5,29.29,29.29,0,0,0-9.69-1.53q-10.11,0-15.25,6t-5.14,17.75q0,24.11,21.13,24.1A46.93,46.93,0,0,0,575.9,55V38.56H561.81V30Z"/><path d="M603.71,65.35V0h43.75V9.45H615.38v18H645.6V36.8H615.38V55.89h32.08v9.46Z"/><path d="M716.79,65.35h-13L692.6,44.49a9.64,9.64,0,0,0-3.9-4.17,12.66,12.66,0,0,0-5.84-1.2h-9.08V65.35H662V0h28.92Q702,0,707.84,5t5.8,14.32a18.22,18.22,0,0,1-4.22,12.37q-4.21,4.87-11.91,6.35,5.19,1.4,8.34,7.33Zm-17.61-38q3.15-2.55,3.15-7.83c0-3.58-1.05-6.2-3.15-7.83s-5.41-2.46-9.92-2.46H673.69V29.94h15.57q6.74,0,9.92-2.55Z"/><path d="M730.14,65.35V0h12V65.35Z"/></svg>