<svg xmlns="http://www.w3.org/2000/svg" width="36" height="36" viewBox="0 0 36 36">
  <g id="Group_6" data-name="Group 6" transform="translate(-1718 -1782)">
    <circle id="Ellipse_5" data-name="Ellipse 5" cx="18" cy="18" r="18" transform="translate(1718 1782)" fill="#8e8e8e"/>
    <g id="Instagram" transform="translate(1726 1790)">
      <g id="Group_5" data-name="Group 5" transform="translate(0)">
        <path id="Path_2" data-name="Path 2" d="M256.839-334.691c2.705,0,3.026.01,4.094.059a5.606,5.606,0,0,1,1.882.349,3.148,3.148,0,0,1,1.165.758,3.135,3.135,0,0,1,.758,1.165,5.607,5.607,0,0,1,.349,1.881c.049,1.068.059,1.389.059,4.094s-.011,3.026-.059,4.094a5.608,5.608,0,0,1-.349,1.881,3.135,3.135,0,0,1-.758,1.165,3.149,3.149,0,0,1-1.165.758,5.6,5.6,0,0,1-1.882.349c-1.068.049-1.389.059-4.094.059s-3.026-.01-4.094-.059a5.6,5.6,0,0,1-1.882-.349,3.145,3.145,0,0,1-1.165-.758,3.141,3.141,0,0,1-.758-1.165,5.621,5.621,0,0,1-.349-1.881c-.049-1.068-.059-1.389-.059-4.094s.01-3.025.059-4.094a5.62,5.62,0,0,1,.349-1.881,3.14,3.14,0,0,1,.758-1.165,3.144,3.144,0,0,1,1.165-.758,5.606,5.606,0,0,1,1.882-.349c1.068-.048,1.389-.059,4.094-.059m0-1.826c-2.752,0-3.1.012-4.177.061a7.432,7.432,0,0,0-2.459.471,4.965,4.965,0,0,0-1.794,1.168,4.964,4.964,0,0,0-1.169,1.795,7.439,7.439,0,0,0-.471,2.459c-.049,1.08-.061,1.426-.061,4.177s.011,3.1.061,4.177a7.444,7.444,0,0,0,.471,2.459,4.968,4.968,0,0,0,1.169,1.795,4.963,4.963,0,0,0,1.794,1.168,7.435,7.435,0,0,0,2.459.471c1.081.049,1.426.061,4.177.061s3.1-.012,4.177-.061a7.435,7.435,0,0,0,2.459-.471,4.964,4.964,0,0,0,1.794-1.168,4.965,4.965,0,0,0,1.169-1.795,7.433,7.433,0,0,0,.471-2.459c.049-1.08.061-1.426.061-4.177s-.011-3.1-.061-4.177a7.428,7.428,0,0,0-.471-2.459,4.961,4.961,0,0,0-1.169-1.795,4.965,4.965,0,0,0-1.794-1.168,7.433,7.433,0,0,0-2.459-.471c-1.081-.049-1.426-.061-4.177-.061Z" transform="translate(-246.708 336.517)" fill="#fff"/>
        <path id="Path_3" data-name="Path 3" d="M263.489-324.938a5.2,5.2,0,0,0-5.2,5.2,5.2,5.2,0,0,0,5.2,5.2,5.2,5.2,0,0,0,5.2-5.2A5.2,5.2,0,0,0,263.489-324.938Zm0,8.58a3.377,3.377,0,0,1-3.377-3.377,3.377,3.377,0,0,1,3.377-3.377,3.377,3.377,0,0,1,3.377,3.377A3.377,3.377,0,0,1,263.489-316.358Z" transform="translate(-253.357 329.867)" fill="#fff"/>
        <circle id="Ellipse_2" data-name="Ellipse 2" cx="1.216" cy="1.216" r="1.216" transform="translate(14.324 3.508)" fill="#fff"/>
      </g>
    </g>
  </g>
</svg>
