<svg xmlns="http://www.w3.org/2000/svg" width="36" height="36" viewBox="0 0 36 36">
  <g id="Linkedin" transform="translate(-135 -130)">
    <circle id="back" cx="18" cy="18" r="18" transform="translate(135 130)" fill="#8e8e8e"/>
    <g id="Linkedin-2" data-name="Linkedin" transform="translate(142.799 137.825)">
      <path id="Path_16" data-name="Path 16" d="M153.855,155.229h4.157V168.59h-4.157Zm2.079-6.642A2.408,2.408,0,1,1,153.525,151a2.408,2.408,0,0,1,2.409-2.408" transform="translate(-153.525 -148.587)" fill="#fff"/>
      <path id="Path_17" data-name="Path 17" d="M170.369,163.907h3.981v1.827h.057a4.362,4.362,0,0,1,3.929-2.158c4.2,0,4.982,2.766,4.982,6.365v7.328h-4.152v-6.5c0-1.55-.027-3.543-2.158-3.543-2.161,0-2.491,1.689-2.491,3.432v6.608h-4.148Z" transform="translate(-163.278 -157.266)" fill="#fff"/>
    </g>
  </g>
</svg>
